<svg width="800" height="200" viewBox="0 0 800 200" xmlns="http://www.w3.org/2000/svg" xmlns:inkscape="http://www.inkscape.org/namespaces/inkscape" role="img" aria-label="Questbee logo">
  <defs>
    <style>
      .questbee-text {
        font-family: -apple-system, BlinkMacSystemFont, 'Segoe UI', Roboto, 'Helvetica Neue', Arial, sans-serif;
        font-size: 120px;
        font-weight: 700;
        fill: #ffffff;
        letter-spacing: -2px;
      }
    </style>
  </defs>

  <!-- Icon -->
  <g transform="translate(30, 25) scale(0.35)">
    <g transform="matrix(0.2036216,0,0,0.2036216,211.3237,197.92789)">
      <path
         style="fill:#ffffff;fill-opacity:1;fill-rule:evenodd;stroke:none"
         d="m -402.29092,863.40583 c -27.4315,-23.821 -75.6958,-74.4279 -100.9149,-105.8128 -52.2507,-65.0256 -95.1245,-137.1114 -126.2517,-212.2733 -5.6933,-13.7473 -5.2545,-14.979 6.6175,-18.5735 13.3685,-4.0476 61.9626,-21.7056 76.8925,-27.941 6.1889,-2.5848 21.3798,-8.8659 33.7576,-13.958 12.3778,-5.0921 27.2875,-11.3637 33.1325,-13.9368 5.8451,-2.5731 15.9724,-7.0357 22.5051,-9.917 23.2707,-10.2635 114.7721,-56.8218 136.4782,-69.4436 12.1424,-7.0607 22.464,-12.8376 22.9369,-12.8376 3.8431,0 107.407,-66.47662 137.5273,-88.27742 18.0609,-13.0723 62.075804,-45.7161 68.743804,-50.9841 25.0648,-19.80214 46.5273,-37.03208 47.5326,-38.15886 0.6877,-0.77072 8.5645,-7.57744 17.504,-15.12608 15.8715996,-13.40217 25.47539956,-21.96489 56.0884,-50.00858 19.3808,-17.75413 81.192656,-79.565979 98.946786,-98.946749 7.56421,-8.25725 18.85725,-20.59805 25.09564,-27.4239803 6.23839,-6.82592 20.69315,-23.6633187 32.12169,-37.4164387 11.42855,-13.75312 22.65032,-27.25619 24.93729,-30.00681 2.28697,-2.75062 11.46257,-14.53737 20.39022,-26.19275 8.92768,-11.65539 17.57597,-22.907942 19.21847,-25.005672 27.41197,-35.00952 73.99429,-104.34131 105.88689,-157.59897 33.2624,-55.54514 86.02714,-155.88451 97.96404,-186.29228 3.3798,-8.60961 6.9981,-16.85759 19.7456,-45.01022 1.2455,-2.75062 8.2025,-19.86205 15.4601,-38.02539 l 13.1957,-33.02425 32.417,15.86939 c 39.829,19.49783 66.6299,34.91364 102.4375,58.92175 51.5056,34.5333 77.5801,56.19357 127.818,106.17944 31.7379,31.57865 48.2696,50.09366 79.9272,89.5157 3.1146,3.87853 1.3752,10.75274 -14.8696,58.76334 -21.6524,63.9923 -29.5169,85.21036 -44.7142,120.636 -73.9841,172.461421 -163.1665,315.44082 -285.4271,457.60381 -26.0557,30.29722 -129.25804,134.71732 -153.22714,155.03522 -8.9236,7.5642 -18.1054,15.4649 -20.404,17.557 -65.50886,59.6247 -185.2698,143.3451 -284.242886,198.7036 -37.8308004,21.1599 -149.947404,76.3058 -155.136504,76.3058 -0.6619,0 -5.9735,2.0842 -11.8036,4.6315 -57.5476,25.1444 -138.4356,53.3326 -209.3953,72.9709 -29.5475,8.1774 -46.6519,12.418 -50.0871,12.418 -2.1599,0 -10.6219,-5.8137 -18.8045,-12.9193 l 0,0 z"
         id="path3092"
         inkscape:connector-curvature="0" />
      <path
         style="fill:#ffffff;fill-opacity:1;fill-rule:evenodd;stroke:none"
         d="m 85.445734,1072.5337 c -83.4476504,-8.252 -144.20335,-22.118 -223.800754,-51.0772 -33.7869,-12.2923 -102.1659,-44.13287 -99.5044,-46.33397 0.4026,-0.3329 21.5492,-7.6278 46.9924,-16.211 77.6271,-26.1871 133.131404,-49.2472 211.298004,-87.7868 70.17377,-34.5988 92.591486,-46.7682 146.283196,-79.4094 21.7199,-13.2044 110.2636,-71.1416 116.83564,-76.4497 2.44303,-1.9731 16.25707,-12.3463 30.69785,-23.0514 14.4408,-10.7051 26.8186,-20.1054 27.5062,-20.8895 0.6877,-0.7841 6.3103,-5.3349 12.4946,-10.113 55.92904,-43.2111 131.87084,-112.9198 190.62064,-174.9751 36.8841,-38.9593 36.2187,-38.2182 62.8689,-70.0159 9.7978,-11.6902 18.4414,-21.8175 19.208,-22.5051 0.7666,-0.6877 8.9937,-10.815 18.2823,-22.5051 9.2887,-11.69022 18.2303,-22.94272 19.8703,-25.00562 1.64,-2.063 8.389,-11.0651 14.9977,-20.0046 6.6087,-8.9395 13.3805,-17.9416 15.0486,-20.0045 7.5389,-9.3242 49.869,-71.6669 69.6122,-102.52329 15.6328,-24.43235 37.5568,-61.50226 58.4162,-98.77242 11.4117,-20.389629 49.6403,-96.2248093 57.3545,-113.7758183 3.9292,-8.9395297 10.7271,-24.1304797 15.1065,-33.7576697 4.3794,-9.62718 15.6468,-36.8852 25.0386,-60.573372 l 17.0761,-43.06941 4.7855,10.56203 c 30.0659,66.358562 54.2417,144.7496207 65.54779,212.541251 11.8037,70.776209 14.6641,154.855199 7.5053,220.616699 -10.1383,93.13092 -21.07869,330.95872 -21.10799,458.85412 -0.015,62.0422 4.9568,186.931 8.70909,218.7996 5.1948,44.12067 6.9886,57.03177 10.2489,73.76677 2.0095,10.3148 4.2511,20.7246 4.9812,23.1327 1.1286,3.7223 0.4186,4.0329 -4.7379,2.0724 -18.21649,-6.9259 -97.29469,-16.1466 -175.56429,-20.4711 -58.2862,-3.2204 -283.4064,-1.6667 -366.3331,2.5283 -121.23434,6.1329 -182.36996,10.2694 -241.30486,16.3272 -44.14414,4.5375 -99.64689,4.5681 -145.032916,0.08 l 0,10e-5 z"
         id="path3094"
         inkscape:connector-curvature="0" />
      <path
         style="fill:#ffffff;fill-opacity:1;fill-rule:evenodd;stroke:none"
         d="m -674.23022,401.94423 c -2.4956,-4.2008 -12.338,-62.45072 -17.0235,-100.74962 -3.7599,-30.7327 -3.7195,-136.57121 0.064,-168.78827 13.0384,-111.011019 39.9768,-203.437868 86.3637,-296.31725 30.6491,-61.36788 72.7088,-124.87582 116.2233,-175.49121 14.5442,-16.91756 73.2053,-76.06817 87.6877,-88.41939 70.2327,-59.89771 141.0447,-104.54656 225.0511,-141.90069 43.7105,-19.43626 113.005404,-41.16953 163.787104,-51.36932 69.4993,-13.95931 96.07202,-16.508 172.539176,-16.54889 66.10228,-0.0353 81.26529,0.98918 131.2798,8.87023 30.10571,4.74391 85.01931,17.0159 85.01931,18.99995 0,6.64571 -38.3568,95.09639 -63.7648,147.0415 -49.74616,101.70296 -96.91439,178.8876 -167.32909,273.81214 -9.69193,13.06547 -18.23384,24.31802 -18.98204,25.00568 -0.74819,0.68766 -5.26967,6.31021 -10.04773,12.49454 C 71.769684,-93.342618 -5.7199164,-10.143888 -69.543416,48.481971 -100.74162,77.139471 -160.99642,126.9324 -194.30172,151.57874 c -16.6778,12.34185 -32.3302,24.06949 -34.7831,26.06144 -5.7555,4.67399 -78.1473,52.28643 -99.3138,65.31913 -94.0869,57.9317 -201.0596,109.9006 -298.8178,145.17012 -43.1313,15.5611 -45.5538,16.2729 -47.0142,13.8148 l 0,0 z"
         id="path3096"
         inkscape:connector-curvature="0" />
    </g>
  </g>

  <!-- Wordmark -->
  <text x="230" y="140" class="questbee-text">Questbee</text>
</svg>
